<svg height="280" viewBox="0 0 264 280" width="264" xmlns="http://www.w3.org/2000/svg" xmlns:xlink="http://www.w3.org/1999/xlink"><defs><path id="a" d="m124 144.610951v18.389049h4c39.764502 0 72 32.235498 72 72v9h-200v-9c0-39.764502 32.235498-72 72-72h4v-18.389049c-17.2373655-8.188579-29.6277754-24.92394-31.6948612-44.7297125-5.8248283-.8234519-10.3051388-5.8291289-10.3051388-11.8812385v-14c0-5.9459926 4.3245733-10.8819269 10-11.8340831v-6.1659169c0-30.927946 25.072054-56 56-56 30.927946 0 56 25.072054 56 56v6.1659169c5.675427.9521562 10 5.8880905 10 11.8340831v14c0 6.0521096-4.48031 11.0577866-10.305139 11.8812385-2.067086 19.8057725-14.457496 36.5411335-31.694861 44.7297125z"/><mask id="b" fill="#fff"><use fill="#fff" fill-rule="evenodd" xlink:href="#a"/></mask><mask id="c" fill="#fff"><use fill="#fff" fill-rule="evenodd" xlink:href="#g"/></mask><mask id="d" fill="#fff"><use fill="#fff" fill-rule="evenodd" xlink:href="#h"/></mask><mask id="e" fill="#fff"><path d="m0 0h264v280h-264z" fill="#fff" fill-rule="evenodd"/></mask><mask id="f" fill="#fff"><use fill="#fff" fill-rule="evenodd" xlink:href="#i"/></mask><path id="g" d="m108 13.0708856c-17.9186994 2.0050524-31.7201576 7.4809485-31.995797 21.574082-25.8577701 10.9231257-44.004203 36.5196581-44.004203 66.3545174v9.000515h200v-9.000515c0-29.8348593-18.146433-55.4313917-44.004203-66.3545018-.275639-14.0931491-14.077098-19.5690452-31.995797-21.5740976v18.9291144c0 13.254834-10.745166 24-24 24-13.254834 0-24-10.745166-24-24z"/><path id="h" d="m35.117844 15.1280772c1.0578681 9.4917253 9.1081433 16.8719228 18.882156 16.8719228 9.8042055 0 17.8740075-7.425864 18.8917593-16.9599454.0819092-.7673086-.7750164-2.0400546-1.8489923-2.0400546-14.8940134 0-26.3048457 0-33.9559426 0-1.0802076 0-2.0748186 1.1784435-1.9689804 2.1280772z"/><path id="i" d="m133.506381 81.3351151c3.857268 1.9955851 6.493619 6.0223586 6.493619 10.6648849v13c0 6.018625-4.430871 11.002364-10.208581 11.867187-1.743226 20.247605-14.260637 37.415797-31.791419 45.743764v18.389049h4c17.490913 0 33.525121 6.236892 46 16.608051v-123.608051c0-20.4345357-8.282732-38.9345357-21.674098-52.3259018-13.391366-13.39136607-31.8913663-21.6740982-52.325902-21.6740982-40.8690715 0-74 33.1309285-74 74v183.716445c13.5691766-1.940919 24-13.610557 24-27.716445v-45.576899c6.9346808-2.222902 14.3271796-3.423101 22-3.423101h4v-18.389049c-11.2273748-5.333544-20.3984628-14.293-26-25.365104v-61.9798883c9.1467898-2.9749531 18.777598-7.2488936 28.3415164-12.7706244 15.403031-8.8929442 28.0898783-19.5544191 36.7246262-30.0982987 1.7649261 5.1981085 4.109113 10.4039386 7.0442885 15.4878117 8.7674499 15.1856679 21.1137549 26.3488574 33.8895689 32.0322018v.2488678c.400422.0671781.794121.1541869 1.18005.2599818.774459.3234068 1.550135.6265866 2.326331.9092164z"/></defs><g fill="none" fill-rule="evenodd"><g transform="translate(32 36)"><use fill="#d0c6ac" xlink:href="#a"/><g fill="#edb98a" mask="url(#b)"><path d="m0 0h264v244h-264z" transform="translate(-32)"/></g><path d="m156 79v23c0 30.927946-25.072054 56-56 56s-56-25.072054-56-56v-23 15c0 30.927946 25.072054 56 56 56s56-25.072054 56-56z" fill="#000" fill-opacity=".1" mask="url(#b)"/></g><g fill-rule="evenodd" transform="translate(0 170)"><use fill="#b7c1db" xlink:href="#g"/><g fill="#5199e4" mask="url(#c)"><path d="m0 0h264v110h-264z"/></g><path d="m102 61.7390531v48.2609469h-7v-51.8497375c2.2037542 1.3097951 4.5467694 2.5105253 7 3.5887906zm67-3.5887906v40.3497375c0 1.932997-1.567003 3.5-3.5 3.5s-3.5-1.567003-3.5-3.5v-36.7609469c2.453231-1.0782653 4.796246-2.2789955 7-3.5887906z" fill="#f4f4f4" mask="url(#c)"/><path d="m90.9601329 12.7243537c-15.0508234 2.8468245-25.4601329 8.518531-25.4601329 19.5833386 0 19.7123172 33.0376807 35.6923077 66.5 35.6923077 33.462319 0 66.5-15.9799905 66.5-35.6923077 0-11.0648076-10.40931-16.7365141-25.460133-19.5833386 9.085054 3.3501061 14.960133 8.9817009 14.960133 18.3525694 0 20.3920523-27.821205 36.9230769-56 36.9230769s-56-16.5310246-56-36.9230769c0-9.3708685 5.8750795-15.0024633 14.9601329-18.3525694z" fill="#000" fill-opacity=".16" mask="url(#c)"/></g><g fill="#000"><g fill-rule="evenodd" transform="translate(78 134)"><use fill="#000" fill-opacity=".7" xlink:href="#h"/><rect fill="#fff" height="16" mask="url(#d)" rx="5" width="31" x="39" y="2"/><g fill="#ff4f6d" mask="url(#d)"><g transform="translate(38 24)"><circle cx="11" cy="11" r="11"/><circle cx="21" cy="11" r="11"/></g></g></g><path d="m16 8c0 4.418278 5.372583 8 12 8 6.627417 0 12-3.581722 12-8" fill-opacity=".16" transform="translate(104 122)"/><g fill-opacity=".6"><g><circle cx="106" cy="112" r="6"/><circle cx="158" cy="112" r="6"/></g><g transform="translate(76 82)"><path d="m26.0390934 6.21012364c-5.761538.77333852-14.7461621 5.79512426-13.9948334 11.60768746.0246881.1902432.3124702.2495357.4366477.0906826 2.4864964-3.1881586 21.7118896-7.8719456 28.7133596-6.8937786.640785.0897314 1.0637989-.5716808.6267828-.9845084-3.7444838-3.53535244-10.6206709-4.51795845-15.7819567-3.82008306" transform="matrix(.9961947 .08715574 -.08715574 .9961947 1.148612 -2.307541)"/><path d="m85.0390934 6.21012364c-5.761538.77333852-14.7461621 5.79512426-13.9948334 11.60768746.0246881.1902432.3124702.2495357.4366477.0906826 2.4864964-3.1881586 21.7118896-7.8719456 28.7133593-6.8937786.640785.0897314 1.063799-.5716808.626783-.9845084-3.7444837-3.53535244-10.6206708-4.51795845-15.7819566-3.82008306" transform="matrix(-.9961947 .08715574 .08715574 .9961947 170.626875 -7.44973)"/></g></g></g><g fill-rule="evenodd" mask="url(#e)"><g fill-rule="evenodd" transform="translate(-1)"><g fill="none" transform="translate(59 18)"><use fill="#944f23" xlink:href="#i"/><g fill="#e8e1e1" mask="url(#f)"><path d="m0 0h264v280h-264z"/></g></g><path d="m192.506381 99.3351151c4.868119 1.7725869 9.756698 2.7368419 14.493619 2.8131169v-10.148232c0-20.4345357-8.282732-38.9345357-21.674098-52.3259018 13.391366 13.3913661 21.674098 31.8913661 21.674098 52.3259018v123.608051c-12.474879-10.371159-28.509087-16.608051-46-16.608051h-4v-18.389049c17.530782-8.327967 30.048193-25.496159 31.791419-45.743764 5.77771-.864823 10.208581-5.848562 10.208581-11.867187v-13c0-4.642526-2.636351-8.6693-6.493619-10.6648849zm-2.326331-.9092164c-.385929-.1057949-.779628-.1928037-1.18005-.2599818v-.2488678c.392974.1748153.786355.344446 1.18005.5088496zm-107.18005 56.8199483c5.6015372 11.072104 14.7726252 20.03156 26 25.365104v18.389049h-4c-7.6728204 0-15.0653192 1.200199-22 3.423101z" fill="#000" fill-opacity=".24"/></g></g></g></svg>