<svg height="280" viewBox="0 0 264 280" width="264" xmlns="http://www.w3.org/2000/svg" xmlns:xlink="http://www.w3.org/1999/xlink"><defs><path id="a" d="m124 144.610951v18.389049h4c39.764502 0 72 32.235498 72 72v9h-200v-9c0-39.764502 32.235498-72 72-72h4v-18.389049c-17.2373655-8.188579-29.6277754-24.92394-31.6948612-44.7297125-5.8248283-.8234519-10.3051388-5.8291289-10.3051388-11.8812385v-14c0-5.9459926 4.3245733-10.8819269 10-11.8340831v-6.1659169c0-30.927946 25.072054-56 56-56 30.927946 0 56 25.072054 56 56v6.1659169c5.675427.9521562 10 5.8880905 10 11.8340831v14c0 6.0521096-4.48031 11.0577866-10.305139 11.8812385-2.067086 19.8057725-14.457496 36.5411335-31.694861 44.7297125z"/><mask id="b" fill="#fff"><use fill="#fff" fill-rule="evenodd" xlink:href="#a"/></mask><mask id="c" fill="#fff"><use fill="#fff" fill-rule="evenodd" xlink:href="#j"/></mask><mask id="d" fill="#fff"><use fill="#fff" fill-rule="evenodd" xlink:href="#k"/></mask><mask id="e" fill="#fff"><path d="m0 0h264v280h-264z" fill="#fff" fill-rule="evenodd"/></mask><mask id="f" fill="#fff"><use fill="#fff" fill-rule="evenodd" xlink:href="#l"/></mask><filter id="g" height="110.5%" width="101.6%" x="-.8%" y="-2.6%"><feOffset dx="0" dy="2" in="SourceAlpha" result="shadowOffsetOuter1"/><feColorMatrix in="shadowOffsetOuter1" result="shadowMatrixOuter1" type="matrix" values="0 0 0 0 0   0 0 0 0 0   0 0 0 0 0  0 0 0 0.1 0"/><feMerge><feMergeNode in="shadowMatrixOuter1"/><feMergeNode in="SourceGraphic"/></feMerge></filter><linearGradient id="h" x1="50%" x2="50%" y1="0%" y2="70.50582%"><stop offset="0" stop-color="#fff" stop-opacity=".5"/><stop offset="1" stop-opacity=".5"/></linearGradient><linearGradient id="i" x1="50%" x2="50%" y1="0%" y2="100%"><stop offset="0" stop-color="#fff" stop-opacity=".5"/><stop offset=".705058195" stop-opacity=".5"/></linearGradient><path id="j" d="m108 13.0708856c-17.9186994 2.0050524-31.7201576 7.4809485-31.995797 21.574082-25.8577701 10.9231257-44.004203 36.5196581-44.004203 66.3545174v9.000515h200v-9.000515c0-29.8348593-18.146433-55.4313917-44.004203-66.3545018-.275639-14.0931491-14.077098-19.5690452-31.995797-21.5740976v18.9291144c0 13.254834-10.745166 24-24 24-13.254834 0-24-10.745166-24-24z"/><path id="k" d="m35.117844 15.1280772c1.0578681 9.4917253 9.1081433 16.8719228 18.882156 16.8719228 9.8042055 0 17.8740075-7.425864 18.8917593-16.9599454.0819092-.7673086-.7750164-2.0400546-1.8489923-2.0400546-14.8940134 0-26.3048457 0-33.9559426 0-1.0802076 0-2.0748186 1.1784435-1.9689804 2.1280772z"/><path id="l" d="m133.506381 81.3351151c3.857268 1.9955851 6.493619 6.0223586 6.493619 10.6648849v13c0 6.018625-4.430871 11.002364-10.208581 11.867187-1.743226 20.247605-14.260637 37.415797-31.791419 45.743764v18.389049h4c17.490913 0 33.525121 6.236892 46 16.608051v-123.608051c0-20.4345357-8.282732-38.9345357-21.674098-52.3259018-13.391366-13.39136607-31.8913663-21.6740982-52.325902-21.6740982-40.8690715 0-74 33.1309285-74 74v183.716445c13.5691766-1.940919 24-13.610557 24-27.716445v-45.576899c6.9346808-2.222902 14.3271796-3.423101 22-3.423101h4v-18.389049c-11.2273748-5.333544-20.3984628-14.293-26-25.365104v-61.9798883c9.1467898-2.9749531 18.777598-7.2488936 28.3415164-12.7706244 15.403031-8.8929442 28.0898783-19.5544191 36.7246262-30.0982987 1.7649261 5.1981085 4.109113 10.4039386 7.0442885 15.4878117 8.7674499 15.1856679 21.1137549 26.3488574 33.8895689 32.0322018v.2488678c.400422.0671781.794121.1541869 1.18005.2599818.774459.3234068 1.550135.6265866 2.326331.9092164z"/><path id="m" d="m47.0104611 6.27728008c2.5108071.02406914 3.6977405.44905109 4.1255024 3.11461838.4334089 2.70005444.0119999 5.73563974-.4877615 8.39509994-.7627009 4.0608589-2.0311632 8.0394515-4.9838497 11.0074996-1.5554016 1.5630571-3.4524479 2.8089044-5.4701994 3.6595868-1.0715224.451925-2.2030444.7781158-3.3342134 1.0256327-.3307038.0722074-3.1538617.4680909-1.4223437.266916-4.040797.4695278-8.4246506.4508473-11.799452-2.1673002-3.7400931-2.9015885-6.3013704-7.4930461-7.4275983-12.0665417-.6589369-2.6759853-2.0435161-9.0762207.4863497-11.21585933 2.897981-2.45145972 30.3135659-2.01965219 30.3135659-2.01965219z"/><path id="n" d="m78.9192315 6.27468008c-2.5108076.02442838-3.6977413.44905109-4.1255032 3.11461838-.4334091 2.70005444-.012 5.73563974.4874086 8.39509994.763054 4.0608589 2.0315165 8.0394515 4.9842037 11.0074996 1.5554019 1.5630571 3.4524487 2.8089044 5.4702006 3.6599461 1.0715226.4515657 2.2030448.7777565 3.3342141 1.0252734.3307038.0722074 3.1535094.4684501 1.4223439.266916 4.0407979.4695278 8.4246525.4508473 11.7994548-2.1673002 3.740094-2.9015885 6.301372-7.4926869 7.4276-12.0661825.658937-2.6763445 2.043163-9.0762206-.48635-11.21621853-2.897982-2.45145972-30.3135725-2.01965219-30.3135725-2.01965219z"/></defs><g fill="none" fill-rule="evenodd"><g transform="translate(32 36)"><use fill="#d0c6ac" xlink:href="#a"/><g fill="#edb98a" mask="url(#b)"><path d="m0 0h264v244h-264z" transform="translate(-32)"/></g><path d="m156 79v23c0 30.927946-25.072054 56-56 56s-56-25.072054-56-56v-23 15c0 30.927946 25.072054 56 56 56s56-25.072054 56-56z" fill="#000" fill-opacity=".1" mask="url(#b)"/></g><g fill-rule="evenodd" transform="translate(0 170)"><use fill="#b7c1db" xlink:href="#j"/><g fill="#5199e4" mask="url(#c)"><path d="m0 0h264v110h-264z"/></g><path d="m102 61.7390531v48.2609469h-7v-51.8497375c2.2037542 1.3097951 4.5467694 2.5105253 7 3.5887906zm67-3.5887906v40.3497375c0 1.932997-1.567003 3.5-3.5 3.5s-3.5-1.567003-3.5-3.5v-36.7609469c2.453231-1.0782653 4.796246-2.2789955 7-3.5887906z" fill="#f4f4f4" mask="url(#c)"/><path d="m90.9601329 12.7243537c-15.0508234 2.8468245-25.4601329 8.518531-25.4601329 19.5833386 0 19.7123172 33.0376807 35.6923077 66.5 35.6923077 33.462319 0 66.5-15.9799905 66.5-35.6923077 0-11.0648076-10.40931-16.7365141-25.460133-19.5833386 9.085054 3.3501061 14.960133 8.9817009 14.960133 18.3525694 0 20.3920523-27.821205 36.9230769-56 36.9230769s-56-16.5310246-56-36.9230769c0-9.3708685 5.8750795-15.0024633 14.9601329-18.3525694z" fill="#000" fill-opacity=".16" mask="url(#c)"/></g><g fill="#000"><g fill-rule="evenodd" transform="translate(78 134)"><use fill="#000" fill-opacity=".7" xlink:href="#k"/><rect fill="#fff" height="16" mask="url(#d)" rx="5" width="31" x="39" y="2"/><g fill="#ff4f6d" mask="url(#d)"><g transform="translate(38 24)"><circle cx="11" cy="11" r="11"/><circle cx="21" cy="11" r="11"/></g></g></g><path d="m16 8c0 4.418278 5.372583 8 12 8 6.627417 0 12-3.581722 12-8" fill-opacity=".16" transform="translate(104 122)"/><g fill-opacity=".6"><g><circle cx="106" cy="112" r="6"/><circle cx="158" cy="112" r="6"/></g><g transform="translate(76 82)"><path d="m26.0390934 6.21012364c-5.761538.77333852-14.7461621 5.79512426-13.9948334 11.60768746.0246881.1902432.3124702.2495357.4366477.0906826 2.4864964-3.1881586 21.7118896-7.8719456 28.7133596-6.8937786.640785.0897314 1.0637989-.5716808.6267828-.9845084-3.7444838-3.53535244-10.6206709-4.51795845-15.7819567-3.82008306" transform="matrix(.9961947 .08715574 -.08715574 .9961947 1.148612 -2.307541)"/><path d="m85.0390934 6.21012364c-5.761538.77333852-14.7461621 5.79512426-13.9948334 11.60768746.0246881.1902432.3124702.2495357.4366477.0906826 2.4864964-3.1881586 21.7118896-7.8719456 28.7133593-6.8937786.640785.0897314 1.063799-.5716808.626783-.9845084-3.7444837-3.53535244-10.6206708-4.51795845-15.7819566-3.82008306" transform="matrix(-.9961947 .08715574 .08715574 .9961947 170.626875 -7.44973)"/></g></g></g><g fill-rule="evenodd" mask="url(#e)"><g transform="translate(-1)"><g fill="none" fill-rule="evenodd" transform="translate(59 18)"><use fill="#944f23" xlink:href="#l"/><g fill="#e8e1e1" mask="url(#f)"><path d="m0 0h264v280h-264z"/></g></g><path d="m192.506381 99.3351151c4.868119 1.7725869 9.756698 2.7368419 14.493619 2.8131169v-10.148232c0-20.4345357-8.282732-38.9345357-21.674098-52.3259018 13.391366 13.3913661 21.674098 31.8913661 21.674098 52.3259018v123.608051c-12.474879-10.371159-28.509087-16.608051-46-16.608051h-4v-18.389049c17.530782-8.327967 30.048193-25.496159 31.791419-45.743764 5.77771-.864823 10.208581-5.848562 10.208581-11.867187v-13c0-4.642526-2.636351-8.6693-6.493619-10.6648849zm-2.326331-.9092164c-.385929-.1057949-.779628-.1928037-1.18005-.2599818v-.2488678c.392974.1748153.786355.344446 1.18005.5088496zm-107.18005 56.8199483c5.6015372 11.072104 14.7726252 20.03156 26 25.365104v18.389049h-4c-7.6728204 0-15.0653192 1.200199-22 3.423101z" fill="#000" fill-opacity=".24" fill-rule="evenodd"/><g fill="none" filter="url(#g)" transform="translate(70 93)"><use fill="#000" fill-opacity=".7" xlink:href="#m"/><use fill="url(#h)" xlink:href="#m"/><use fill="#000" fill-opacity=".7" xlink:href="#n"/><use fill="url(#i)" xlink:href="#n"/><g fill="#252c2f"><path d="m46.2491397 7.27516667c2.3716298.02233333 3.4927699.41666666 3.8968204 2.89000003.4093845 2.5053333.0113348 5.322-.4607242 7.7896666-.7204234 3.768-1.9185732 7.4596667-4.7075884 10.2136667-1.4691836 1.4503333-3.2610743 2.6063333-5.1669791 3.3956667-1.0121265.4193333-2.0809268.722-3.1493937.9516666-.3123723.067-2.979039.4343334-1.3435012.2476667-3.8168104.4356667-7.9576613.4183333-11.145393-2.011-3.5327749-2.6923333-5.9520773-6.9526667-7.0158769-11.1963333-.6224111-2.483-1.9302412-8.4216667.4593908-10.40700003 2.7373421-2.27466667 28.6332453-1.874 28.6332453-1.874zm-24.0313368-6.78466667c-5.4403467.18733333-9.0711338 1.14333333-11.7544692 6.57866667-4.91761459 9.96100003 3.4994374 24.89966663 12.8889443 28.97033333 10.9770386 4.7596667 23.2399046-.5076667 29.0432966-10.0336667 3.0733841-5.0436666 4.6269116-12.6826666 4.5268991-18.50199997-.1273492-7.42733333-5.315331-7.63333333-11.4134265-7.47z"/><path d="m79.6805515 7.27256667c-2.3716298.02266666-3.4927699.41666666-3.8968204 2.89000003-.4093845 2.5053333-.0113348 5.322.4603909 7.7896666.7207567 3.768 1.9189065 7.4596667 4.7079217 10.2136667 1.4691836 1.4503333 3.2610743 2.6063333 5.1669791 3.396 1.0121265.419 2.0809268.7216667 3.1493937.9513333.3123723.067 2.9787056.4346667 1.3435012.2476667 3.8168104.4356667 7.9576613.4183333 11.1453933-2.011 3.532775-2.6923333 5.952077-6.9523333 7.015877-11.196.622411-2.4833333 1.929907-8.4216667-.459391-10.40733333-2.737342-2.27466667-28.6332455-1.874-28.6332455-1.874zm24.0310035-6.78466667c5.44068.18733333 9.071467 1.14366667 11.754802 6.57866667 4.917282 9.96100003-3.499437 24.89966663-12.888944 28.97066663-10.9770384 4.7593334-23.2399044-.508-29.0436298-10.0336666-3.0730507-5.044-4.6265782-12.683-4.5268991-18.50233337.1276826-7.42733333 5.3156644-7.63333333 11.4137599-7.46966666z"/><path d="m13.1969483 4.9267c-3.41193438.19166667-7.31088503.23766667-10.50689008 1.71266667-3.384669 1.562-3.90772572 5.09933333.35915099 5.58666663 1.92173985.2196667 3.84567346-.1433333 5.73795415-.481 1.54973964-.2766666 3.65481574-.187 5.11931184-.7793333 2.7290461-1.10333333 2.5538581-6.22566667-.7095269-6.039"/><path d="m112.73467 4.9267c3.411936.19166667 7.310889.23766667 10.506895 1.71266667 3.384671 1.562 3.907728 5.09933333-.359151 5.58666663-1.921741.2196667-3.845675-.1433333-5.737957-.481-1.54974-.2766666-3.654818-.187-5.119314-.7793333-2.729361-1.10333333-2.55386-6.22566667.709527-6.039"/><path d="m73.1094302 7.01263333c-1.9462433-2.3-7.0182105-3.628-10.2179438-3.628-3.2000666 0-8.1233486 1.328-10.0692585 3.628-.981456 1.15966667-1.0147935 2.71133334.6860858 3.43833337 2.1179314.9056666 4.0091677-.7366667 5.7043796-1.5956667 2.168271-1.09866667 5.499354-.978 7.5062715 0 1.7082135.83266667 3.5861149 2.5013333 5.7043796 1.5956667 1.7008793-.72700003 1.6675418-2.2786667.6860858-3.43833337"/></g></g></g></g></g></svg>