<svg height="280" viewBox="0 0 264 280" width="264" xmlns="http://www.w3.org/2000/svg" xmlns:xlink="http://www.w3.org/1999/xlink"><defs><path id="a" d="m124 144.610951v18.389049h4c39.764502 0 72 32.235498 72 72v9h-200v-9c0-39.764502 32.235498-72 72-72h4v-18.389049c-17.2373655-8.188579-29.6277754-24.92394-31.6948612-44.7297125-5.8248283-.8234519-10.3051388-5.8291289-10.3051388-11.8812385v-14c0-5.9459926 4.3245733-10.8819269 10-11.8340831v-6.1659169c0-30.927946 25.072054-56 56-56 30.927946 0 56 25.072054 56 56v6.1659169c5.675427.9521562 10 5.8880905 10 11.8340831v14c0 6.0521096-4.48031 11.0577866-10.305139 11.8812385-2.067086 19.8057725-14.457496 36.5411335-31.694861 44.7297125z"/><mask id="b" fill="#fff"><use fill="#fff" fill-rule="evenodd" xlink:href="#a"/></mask><mask id="c" fill="#fff"><use fill="#fff" fill-rule="evenodd" xlink:href="#h"/></mask><mask id="d" fill="#fff"><use fill="#fff" fill-rule="evenodd" xlink:href="#i"/></mask><mask id="e" fill="#fff"><path d="m0 0h264v280h-264z" fill="#fff" fill-rule="evenodd"/></mask><mask id="f" fill="#fff"><use fill="#fff" fill-rule="evenodd" xlink:href="#k"/></mask><mask id="g" fill="#fff"><use fill="#fff" fill-rule="evenodd" xlink:href="#j"/></mask><path id="h" d="m108 13.0708856c-17.9186994 2.0050524-31.7201576 7.4809485-31.995797 21.574082-25.8577701 10.9231257-44.004203 36.5196581-44.004203 66.3545174v9.000515h200v-9.000515c0-29.8348593-18.146433-55.4313917-44.004203-66.3545018-.275639-14.0931491-14.077098-19.5690452-31.995797-21.5740976v18.9291144c0 13.254834-10.745166 24-24 24-13.254834 0-24-10.745166-24-24z"/><path id="i" d="m35.117844 15.1280772c1.0578681 9.4917253 9.1081433 16.8719228 18.882156 16.8719228 9.8042055 0 17.8740075-7.425864 18.8917593-16.9599454.0819092-.7673086-.7750164-2.0400546-1.8489923-2.0400546-14.8940134 0-26.3048457 0-33.9559426 0-1.0802076 0-2.0748186 1.1784435-1.9689804 2.1280772z"/><path id="j" d="m1 64c.34685629 1.488448 1.67275588 1.2226722 2 0-.46273995-1.554278 3.29594493-28.7519281 13-36 3.618222-2.5166128 23.0082164-4.7680901 42.3126144-4.754432 19.0959917.0135107 38.1082252 2.2649881 41.6873856 4.754432 9.704055 7.2480719 13.46274 34.445722 13 36 .327244 1.2226722 1.653144 1.488448 2 0 .719178-10.2980823 0-63.72563718-57-63s-57.71917845 52.7019177-57 63z"/><path id="k" d="m101.428403 98.1685688c-2.5135658 2.2940522-5.191183 3.3257402-8.5754586 2.6042942-.5823667-.12403-2.9566053-4.5382917-8.85311-4.5382917s-8.2704091 4.4142617-8.8531099 4.5382917c-3.3842757.721446-6.0618929-.310242-8.5754584-2.6042942-4.7250889-4.3129648-8.6546442-10.260383-6.2934362-16.7493874 1.2305545-3.3822389 3.231918-7.0954472 6.8727958-8.1732705 3.8877906-1.150369 9.3462674-.0020058 13.2641285-.7876401 1.2693122-.254746 2.6558996-.7074051 3.5850802-1.4582708.9291806.7508657 2.3161021 1.2035248 3.5847461 1.4582708 3.9181953.7856343 9.376672-.3627289 13.2644625.7876401 3.640878 1.0778233 5.642241 4.7910316 6.87313 8.1732705 2.361208 6.4890044-1.568347 12.4364226-6.29377 16.7493874m38.65263-72.1685688c-3.41034 8.4002532-2.093259 18.8580348-2.724367 27.6758724-.512628 7.1673218-2.019546 17.9098802-8.383808 22.5386586-3.254497 2.3670828-9.178498 6.3453676-13.430988 5.2356633-2.927331-.7638095-3.239688-9.1600983-7.086586-12.3032142-4.363564-3.5646648-9.8122986-5.1309369-15.3061359-4.8891079-2.37061.1043961-7.1650114.0796186-9.149215 1.9025862-1.9842036-1.8229676-6.7782684-1.7981901-9.1488784-1.9025862-5.4941739-.241829-10.942908 1.3244431-15.306473 4.8891079-3.8468978 3.1431159-4.1589176 11.5394047-7.0862491 12.3032142-4.2524899 1.1097043-10.1764905-2.8685805-13.4313249-5.2356633-6.3645981-4.6287784-7.8708425-15.3713368-8.3841437-22.5386586-.6307714-8.8178376.6863089-19.2756192-2.7240305-27.6758724-1.6590567 0-.5647996 16.1288693-.5647996 16.1288693v20.3562512c.0316396 15.2880841 9.5810611 38.1703245 30.7539777 46.9078835 5.178115 2.136816 16.9072995 5.606996 25.8919215 5.606996s20.7138069-3.139812 25.8919219-5.276629c21.172916-8.737558 30.722338-31.9501664 30.754314-47.2382505v-20.3562512s1.09392-16.1288693-.565136-16.1288693"/></defs><g fill="none" fill-rule="evenodd"><g transform="translate(32 36)"><use fill="#d0c6ac" xlink:href="#a"/><g fill="#ffdbb4" mask="url(#b)"><path d="m0 0h264v244h-264z" transform="translate(-32)"/></g><path d="m156 79v23c0 30.927946-25.072054 56-56 56s-56-25.072054-56-56v-23 15c0 30.927946 25.072054 56 56 56s56-25.072054 56-56z" fill="#000" fill-opacity=".1" mask="url(#b)"/></g><g fill-rule="evenodd" transform="translate(0 170)"><use fill="#b7c1db" xlink:href="#h"/><g fill="#262e33" mask="url(#c)"><path d="m0 0h264v110h-264z"/></g><path d="m102 61.7390531v48.2609469h-7v-51.8497375c2.2037542 1.3097951 4.5467694 2.5105253 7 3.5887906zm67-3.5887906v40.3497375c0 1.932997-1.567003 3.5-3.5 3.5s-3.5-1.567003-3.5-3.5v-36.7609469c2.453231-1.0782653 4.796246-2.2789955 7-3.5887906z" fill="#f4f4f4" mask="url(#c)"/><path d="m90.9601329 12.7243537c-15.0508234 2.8468245-25.4601329 8.518531-25.4601329 19.5833386 0 19.7123172 33.0376807 35.6923077 66.5 35.6923077 33.462319 0 66.5-15.9799905 66.5-35.6923077 0-11.0648076-10.40931-16.7365141-25.460133-19.5833386 9.085054 3.3501061 14.960133 8.9817009 14.960133 18.3525694 0 20.3920523-27.821205 36.9230769-56 36.9230769s-56-16.5310246-56-36.9230769c0-9.3708685 5.8750795-15.0024633 14.9601329-18.3525694z" fill="#000" fill-opacity=".16" mask="url(#c)"/></g><g fill="#000"><g fill-rule="evenodd" transform="translate(78 134)"><use fill="#000" fill-opacity=".7" xlink:href="#i"/><rect fill="#fff" height="16" mask="url(#d)" rx="5" width="31" x="39" y="2"/><g fill="#ff4f6d" mask="url(#d)"><g transform="translate(38 24)"><circle cx="11" cy="11" r="11"/><circle cx="21" cy="11" r="11"/></g></g></g><path d="m16 8c0 4.418278 5.372583 8 12 8 6.627417 0 12-3.581722 12-8" fill-opacity=".16" transform="translate(104 122)"/><g fill-opacity=".6"><g><circle cx="106" cy="112" r="6"/><circle cx="158" cy="112" r="6"/></g><g fill-rule="nonzero" transform="translate(88 88)"><path d="m3.63024536 11.1585767c3.91490965-5.50870997 14.64767434-8.59773949 23.89278144-6.32739624 1.072698.26342504 2.1558397-.39262033 2.4192648-1.46531834.263425-1.07269802-.3926204-2.15583976-1.4653184-2.4192648-10.7366099-2.63661521-23.16487358.940401-28.10721856 7.89482594-.63986427.90035965-.42869103 2.14895784.47166862 2.78882214.90035965.6398642 2.14895784.428691 2.7888221-.4716687z"/><path d="m61.6302454 11.1585767c3.9149096-5.50870997 14.6476743-8.59773949 23.8927814-6.32739624 1.072698.26342504 2.1558397-.39262033 2.4192648-1.46531834.263425-1.07269802-.3926204-2.15583976-1.4653184-2.4192648-10.7366099-2.63661521-23.1648736.940401-28.1072186 7.89482594-.6398642.90035965-.428691 2.14895784.4716687 2.78882214.9003596.6398642 2.1489578.428691 2.7888221-.4716687z" transform="matrix(-1 0 0 1 146.000308 0)"/></g></g></g><g fill-rule="evenodd" mask="url(#e)"><g transform="translate(48 72)"><use fill="#331b0c" fill-rule="evenodd" xlink:href="#k"/><g fill="#c93305" mask="url(#f)"><path d="m0 0h264v244h-264z" transform="translate(-32)"/></g></g><g fill-rule="evenodd" transform="translate(74 34)"><use fill="#28354b" xlink:href="#j"/><g fill="#c93305" mask="url(#g)"><path d="m0 0h264v280h-264z"/></g></g></g></g></svg>