<svg height="280" viewBox="0 0 264 280" width="264" xmlns="http://www.w3.org/2000/svg" xmlns:xlink="http://www.w3.org/1999/xlink"><defs><path id="a" d="m124 144.610951v18.389049h4c39.764502 0 72 32.235498 72 72v9h-200v-9c0-39.764502 32.235498-72 72-72h4v-18.389049c-17.2373655-8.188579-29.6277754-24.92394-31.6948612-44.7297125-5.8248283-.8234519-10.3051388-5.8291289-10.3051388-11.8812385v-14c0-5.9459926 4.3245733-10.8819269 10-11.8340831v-6.1659169c0-30.927946 25.072054-56 56-56 30.927946 0 56 25.072054 56 56v6.1659169c5.675427.9521562 10 5.8880905 10 11.8340831v14c0 6.0521096-4.48031 11.0577866-10.305139 11.8812385-2.067086 19.8057725-14.457496 36.5411335-31.694861 44.7297125z"/><mask id="b" fill="#fff"><use fill="#fff" fill-rule="evenodd" xlink:href="#a"/></mask><mask id="c" fill="#fff"><use fill="#fff" fill-rule="evenodd" xlink:href="#g"/></mask><mask id="d" fill="#fff"><use fill="#fff" fill-rule="evenodd" xlink:href="#h"/></mask><mask id="e" fill="#fff"><path d="m0 0h264v280h-264z" fill="#fff" fill-rule="evenodd"/></mask><mask id="f" fill="#fff"><use fill="#fff" fill-rule="evenodd" xlink:href="#i"/></mask><path id="g" d="m108 13.0708856c-17.9186994 2.0050524-31.7201576 7.4809485-31.995797 21.574082-25.8577701 10.9231257-44.004203 36.5196581-44.004203 66.3545174v9.000515h200v-9.000515c0-29.8348593-18.146433-55.4313917-44.004203-66.3545018-.275639-14.0931491-14.077098-19.5690452-31.995797-21.5740976v18.9291144c0 13.254834-10.745166 24-24 24-13.254834 0-24-10.745166-24-24z"/><path id="h" d="m35.117844 15.1280772c1.0578681 9.4917253 9.1081433 16.8719228 18.882156 16.8719228 9.8042055 0 17.8740075-7.425864 18.8917593-16.9599454.0819092-.7673086-.7750164-2.0400546-1.8489923-2.0400546-14.8940134 0-26.3048457 0-33.9559426 0-1.0802076 0-2.0748186 1.1784435-1.9689804 2.1280772z"/><path id="i" d="m85.718098 185.073467c1.0878583-.048804 2.182-.073467 3.281902-.073467h4v-18.389049c-11.7713616-5.591964-21.2823474-15.169716-26.7889026-26.989202-2.7643171-8.608117-2.5997008-17.934764-3.2103894-26.795527-.8049975-11.68045-.1119713-23.0780458 2.5362044-34.5785386 2.3894459-10.37542 5.8241384-15.9408417 13.6262553-24.2551391 4.3592711-4.6457984 10.9047004-4.9146011 17.4196909-6.5632271 6.5932614-1.6694776 12.6114474-4.210184 16.7348174-8.9906104 9.083265 10.4112301 33.354007 6.6643115 42.236702 18.0106847 10.801426 13.797781 10.922226 22.7005461 12.193046 38.6424022.952714 11.9513583-.528565 33.5642203-.943706 46.5383313-5.618204 10.895103-14.706521 19.709122-25.803718 24.980826v18.389049h4c6.635699 0 13.061736.89767 19.1633 2.578199-2.050185 3.173843-4.49401 6.178952-7.051255 8.973025-3.831484 4.187519-7.681449 8.519186-12.000498 12.366735-4.940869 4.401474-9.66758 7.596735-12.667433 13.082032-1.357788 2.482685-3.736906 5.093652-1.219182 7.817035 2.299216 2.487218 5.924151 1.974544 8.384802.175424 3.637437-2.659922 6.337793-6.858774 9.689866-9.915781-3.237384 5.815294-7.741783 14.48452-5.428977 21.005138.786517 2.217055 1.584992 2.173086 2.800913 3.65082 1.919819.043063 2.678615.911572 2.276931 2.605074.179915.484117.35983.967327.540289 1.451444 1.455627 2.593742 4.241864 4.410539 7.779831 3.188008 11.560222-3.994416-1.775234-21.961585 10.952533-27.302281 2.277474 2.829454-1.086013 10.778851-1.176786 14.25606-.111428 4.287244.121755 14.012642 6.641638 15.178964 8.49623 1.520345 5.219167-6.59677 5.554537-10.049955.389726-4.016175 2.860704-9.311995 4.871296-12.868531-1.222988 3.779102-3.508616 12.153234 2.816132 13.869401 7.317271 1.985876 6.481291-6.585438 7.591763-10.150587.228835 5.275423 7.045496 17.749589 13.205004 7.896362 3.173789-5.075973 1.008829-13.440586.660957-18.853356 4.413626 4.559673 7.940179-1.350813 7.838535-4.630387 1.677939 4.752323 7.983119 18.002526 13.570813 7.484772 3.397731-6.395056-.226117-14.984955-2.48348-21.159257 5.944263.519927 4.750084-5.236439 3.864641-8.095357-1.306694-4.221516-.60932-4.841168-.340263-9.205924 8.250003 4.804904 7.997252-8.233612 7.541757-11.431593-1.14526-8.051841-7.408587-15.261917-12.242377-22.052697-3.466219-4.871085-9.935007-13.352194-8.038561-19.225963 1.95678 2.46818 6.507381 2.442342 8.316315-.14188 1.531724-2.188045-.091316-5.795803-.830544-7.982034-2.020919-5.980293-6.059496-9.844161-9.710521-14.980875-7.108004-10.001-6.085586-23.1328943-6.742738-34.3129091-.819674-13.9487275-3.814091-27.6803277-16.480437-37.8272881-6.786765-5.4363412-15.057966-9.9135146-21.370212-15.6816661-1.721423-1.5729262-2.449237-3.5216321-4.065211-5.0378967-1.813826-1.7016614-2.660134-1.298684-4.158157-3.721081-2.668287-4.3144413-5.802397-8.35418719-12.251074-8.55680909-4.219035-.13190822-9.555066 3.42870709-13.357742 2.90832689-3.122151-.42654855-5.094151-4.87833761-7.656445-6.37239083-3.965741-2.31270011-6.733498-1.41472698-10.972101-.07524662-6.308985 1.99358195-10.329624 2.68847988-16.754929.30551938-4.3723165-1.62188181-8.4984046-5.00707279-13.6610427-3.80358028-4.0494476.94466229-5.858382 4.21290372-8.2434795 6.7178-2.4611945 2.5860357-1.271907 1.73112539-4.8696646 2.30544742-3.6803771.58792083-6.5867391 1.12144653-9.3784119 3.53160463-4.5125523 3.8955987-1.3865961 9.9547642-4.9533713 13.3889108-1.9252542 1.8539677-5.9350226 2.7369822-8.1646648 4.6539577-2.434017 2.0923997-4.4244971 4.6353726-6.2481074 7.1108049-3.5515558 4.8225826-5.9763324 10.0780599-8.579937 15.2805019-4.8435742 9.6814286-9.1615355 19.6710964-11.0019959 30.0723541-.9452334 5.3461358-2.5383785 10.5762287-3.5118766 15.9119388-.7506426 4.1145393-.4304916 8.6211763-1.896446 12.6165003-1.7393601 4.73963-5.8986048 9.095774-8.1516196 13.757437-2.9878944 6.182915-4.99468107 12.114705-5.63009104 18.770857-.62399541 6.544189 1.11264688 12.310981 1.87850886 18.726888.44353678 3.717001-.32341226 4.139017-2.87972798 7.64705-1.96710751 2.699812-3.95976186 5.37288-5.22460275 8.378212-2.36172481 5.614485-2.23072926 11.077117 1.87850885 16.013023 2.81993748 3.387457 12.29890616 6.933114 11.52271676-.617838-.3603736-3.508034-4.771282-5.095012-3.9287795-9.119799.5832292-2.787298 3.4243651-4.716059 6.8731899-5.577769 2.4361912-.608319 3.6358061-.581574 4.7348642 2.08968.9963272 2.421038-.3244993 7.706885-.630518 10.251218-.1228423 1.022629-.304388 1.918789-.4277739 2.865718-.8680493 6.674737-1.027853 12.815948-4.6815962 18.944921-2.244318 3.765957-6.6356586 9.072656-1.6284759 12.702172 3.9592183 2.870704 10.7905549 1.121447 13.8773755-1.882072 3.2564081 4.027054 2.5323995 8.423541 1.3143039 12.868984-.7560781 2.7601-2.8237423 6.802113.4310351 9.03322 4.4076471 3.02165 11.6026187-1.737471 14.9074028-4.139017 1.9105783 4.266846 3.7032062 19.826123 11.2357223 10.551298 2.1981163-2.705252 5.857295-5.34387 6.5541261-8.533692 1.1561309-5.29038.32613-10.85863.8049976-16.202499 2.4035781 6.997482 4.0376215 9.787227 5.5090114 16.970105.8848994 4.321241 1.2316843 18.819541 10.1741692 16.909818 6.8807996-1.469122 2.4802187-10.523828 1.6012983-14.214992-1.6833744-7.069102-2.4955701-10.062375-4.1224153-17.14009 2.5329431 4.625854 4.7462787 9.37183 7.1797521 14.0344 2.390533 4.579618 13.0786102 14.026856 16.2054 10.049547 3.12679-3.977308-4.495702-9.644757-6.2296265-14.460086-3.6086286-10.023665-7.9809449-20.005174-9.0174948-30.507062-.4984354-5.049229.4364707-9.712253.8463074-14.703007.279797-3.409598-.1411845-6.902684-.8118031-10.339992z"/></defs><g fill="none" fill-rule="evenodd"><g transform="translate(32 36)"><use fill="#d0c6ac" xlink:href="#a"/><g fill="#ffdbb4" mask="url(#b)"><path d="m0 0h264v244h-264z" transform="translate(-32)"/></g><path d="m156 79v23c0 30.927946-25.072054 56-56 56s-56-25.072054-56-56v-23 15c0 30.927946 25.072054 56 56 56s56-25.072054 56-56z" fill="#000" fill-opacity=".1" mask="url(#b)"/></g><g fill-rule="evenodd" transform="translate(0 170)"><use fill="#b7c1db" xlink:href="#g"/><g fill="#ff5c5c" mask="url(#c)"><path d="m0 0h264v110h-264z"/></g><path d="m102 61.7390531v48.2609469h-7v-51.8497375c2.2037542 1.3097951 4.5467694 2.5105253 7 3.5887906zm67-3.5887906v40.3497375c0 1.932997-1.567003 3.5-3.5 3.5s-3.5-1.567003-3.5-3.5v-36.7609469c2.453231-1.0782653 4.796246-2.2789955 7-3.5887906z" fill="#f4f4f4" mask="url(#c)"/><path d="m90.9601329 12.7243537c-15.0508234 2.8468245-25.4601329 8.518531-25.4601329 19.5833386 0 19.7123172 33.0376807 35.6923077 66.5 35.6923077 33.462319 0 66.5-15.9799905 66.5-35.6923077 0-11.0648076-10.40931-16.7365141-25.460133-19.5833386 9.085054 3.3501061 14.960133 8.9817009 14.960133 18.3525694 0 20.3920523-27.821205 36.9230769-56 36.9230769s-56-16.5310246-56-36.9230769c0-9.3708685 5.8750795-15.0024633 14.9601329-18.3525694z" fill="#000" fill-opacity=".16" mask="url(#c)"/></g><g fill="#000"><g fill-rule="evenodd" transform="translate(78 134)"><use fill="#000" fill-opacity=".7" xlink:href="#h"/><rect fill="#fff" height="16" mask="url(#d)" rx="5" width="31" x="39" y="2"/><g fill="#ff4f6d" mask="url(#d)"><g transform="translate(38 24)"><circle cx="11" cy="11" r="11"/><circle cx="21" cy="11" r="11"/></g></g></g><path d="m16 8c0 4.418278 5.372583 8 12 8 6.627417 0 12-3.581722 12-8" fill-opacity=".16" transform="translate(104 122)"/><g fill-opacity=".6"><g><circle cx="106" cy="112" r="6"/><circle cx="158" cy="112" r="6"/></g><g fill-rule="nonzero" transform="translate(88 88)"><path d="m3.63024536 11.1585767c3.91490965-5.50870997 14.64767434-8.59773949 23.89278144-6.32739624 1.072698.26342504 2.1558397-.39262033 2.4192648-1.46531834.263425-1.07269802-.3926204-2.15583976-1.4653184-2.4192648-10.7366099-2.63661521-23.16487358.940401-28.10721856 7.89482594-.63986427.90035965-.42869103 2.14895784.47166862 2.78882214.90035965.6398642 2.14895784.428691 2.7888221-.4716687z"/><path d="m61.6302454 11.1585767c3.9149096-5.50870997 14.6476743-8.59773949 23.8927814-6.32739624 1.072698.26342504 2.1558397-.39262033 2.4192648-1.46531834.263425-1.07269802-.3926204-2.15583976-1.4653184-2.4192648-10.7366099-2.63661521-23.1648736.940401-28.1072186 7.89482594-.6398642.90035965-.428691 2.14895784.4716687 2.78882214.9003596.6398642 2.1489578.428691 2.7888221-.4716687z" transform="matrix(-1 0 0 1 146.000308 0)"/></g></g></g><g fill-rule="evenodd" mask="url(#e)"><g fill-rule="evenodd" transform="translate(15 14)"><use fill="#8d5a5a" xlink:href="#i"/><g fill="#b58143" mask="url(#f)"><path d="m0 0h264v280h-264z"/></g><path d="m85.718098 185.073467c1.0878583-.048804 2.182-.073467 3.281902-.073467h4v-18.389049c-11.7713616-5.591964-21.2823474-15.169716-26.7889026-26.989202.532633 1.658626 1.1740063 3.290576 1.950618 4.887376 5.7551076 11.832757 13.2566413 22.411705 16.3260683 35.080787.4355302 1.797167.8691289 3.632271 1.2303143 5.483555zm78.445202 2.504732c-6.101564-1.680529-12.527601-2.578199-19.1633-2.578199h-4v-18.389049c10.900717-5.178366 19.863061-13.774723 25.502046-24.404085-.077327 2.993772-.009981 5.971751.372701 8.848715 1.07025 8.044134 4.001615 15.310419 2.641109 23.580294-.744907 4.531811-2.725591 8.875582-5.352556 12.942324z" fill="#000" fill-opacity=".24" mask="url(#f)"/><path d="m49.3607552 108.248307c-.1250165-2.422174-1.9801527-10.536996.3277607-11.9389506 2.5296818-1.5377732 2.0024383 7.7064636 2.0285287 8.6535846.043484 1.537322 1.2110294 13.135146-.9272964 13.083706-2.1318031-.050988-1.3469169-8.218152-1.428993-9.79834zm8.43432 57.750108c-.0086968 1.013901-1.0724242.952535-1.8317636.687215-.9376237-.327589-.3636349-2.483991-.413098-3.19106-.130452-1.859045-1.0229611-7.337814.3402623-8.87288 2.7253598-3.068327 1.9154703 9.948148 1.9045993 11.376725zm-25.6739871 13.163077c1.929059-.054598.1434972-37.832019-2.8215681-37.790055-2.0823401.029329 1.3615928 37.826604 2.8215681 37.790055zm2.2320338 19.3546c-2.3975991 0-1.95678 8.462265-.5446371 9.13865 2.1399564 1.025182 3.2265129-9.13865.5446371-9.13865zm15.2366853 3.538864c.0211985 1.05767-1.1784164 1.074365-1.9790656.743618-.9088156-.375419-.5283306-3.505113-.5642049-4.199998-.1130584-2.187086-2.0165706-10.671912-.2853638-12.230893 1.9741737-1.777373 2.0171142.17327 2.5481625 1.498517 1.5637934 3.902641.1962216 10.032075.2804718 14.188756zm140.6525898-79.721766c.109797 1.462419 1.068619 11.01755-.524526 11.745826-2.74221 1.253953-1.561076-4.65032-1.550205-5.412889.107079-7.437083-.968606-14.811897-1.786649-22.209272-.155455-1.404662-2.625346-12.2250266-.816412-13.1216098 2.707423-1.3414906 2.303565 2.2457445 2.458477 3.4099039 1.128953 8.4685819 1.627932 17.0792999 2.219315 25.5880409zm-3.219393 33.254031c-2.532399-.501762-3.857574 8.093614-2.701987 9.015466 1.917101 1.530102 5.349076-8.489339 2.701987-9.015466zm-.268079 37.797951c-1.138737-.226514-9.43331 15.732395-8.750611 16.634844 1.299628 1.718715 12.829411-15.820383 8.750611-16.634844zm-20.42237 7.373415c-1.781213-.802277-9.33384 10.751328-7.405869 11.619032 1.748057.786034 9.561589-10.652057 7.405869-11.619032zm42.092731-43.311419c-2.150827 0-2.055163 11.822083-.400053 12.567957 1.711096.770692 2.942236-12.567957.400053-12.567957zm-30.285683-108.6036552c-.608232-.8699609-7.17486-8.6201936-2.471522-7.5128886 2.291064.5392133 5.448002 7.3527039 6.481291 9.410739.5941 1.1822083 3.984221 6.4592793.391899 6.0856654-.977303-.1010743-3.589604-6.8207102-4.401668-7.9835158zm-23.091853-15.4870189c-.846307.3808335-.832175.7382033.042397 1.0716583.846851-.3808336.832175-.7377522-.042397-1.0716583zm-84.4288624 8.1299381c-2.005156 1.8432523-9.5431076 12.5183225-12.1260573 12.6252627-4.7065995.194929 4.2782822-9.0249421 5.2974385-10.1981259.4549513-.5261278 2.4856542-3.0913393 3.7216869-3.7221512 1.2610361-.6438974 5.4436534-.8591315 3.1069319 1.2950144zm-27.3648624 28.4941529c-2.1828969-.4286633-5.8350094 10.2649071-4.5609282 11.5554093 1.9236235 1.9497412 7.0074468-11.0698917 4.5609282-11.5554093zm24.9388356 119.0117811c.4125545 1.341039 4.6315897 11.079367 3.5711236 12.360845-1.6214097 1.957412-2.0866885-.816716-2.6171933-1.967339-1.1778729-2.555284-4.2380595-8.845806-3.7461467-11.535555.4777805-2.608529 2.3753136-.201698 2.7922164 1.142049zm-8.2066268 22.82384c-2.2948682 0-2.0301593 9.80195-.6636746 10.384481 2.1165838.901998 3.4787201-10.384481.6636746-10.384481zm161.804838-8.369674c.136431.603287 2.054076 5.562696-.662587 4.844347-1.562163-.412871-1.802956-4.784785-2.201921-6.110032-1.228967-4.085838-5.280045-9.162565-5.631722-13.194257-.339719-3.896324 1.84046-2.411344 3.515138.888913 2.236165 4.407561 3.913016 8.871074 4.981092 13.571029zm-19.702057-.495715c-2.131803-.009476-2.235078 10.773437-.90175 11.401993 1.863833.878534 3.62113-11.401993.90175-11.401993zm6.160596-88.296385c1.58173-.41242-3.40969-13.325564-5.177858-13.183428-2.694377.21749 2.77591 13.802508 5.177858 13.183428zm-26.815497 56.092399c-.846851.380834-.832175.738203.042397 1.071658.846307-.380833.832175-.738203-.042397-1.071658zm-24.217979 55.240668c.793583 0 1.121343-1.223721-.051094-1.251246-.775102.006318-1.184396 1.251246.051094 1.251246zm-98.5317033-55.358753c.0293517-1.90868-2.4693477-.508982-2.4535847 1.101439.032613 3.213621 2.4008604 1.746239 2.4535847-1.101439zm-6.1656509-47.745603c-.8039104 0-1.1333017 1.236355.0510937 1.265685.7837992-.005866 1.1974407-1.265685-.0510937-1.265685zm-19.1322539 62.509579c-.0777276-1.941168-1.7002244.043318-1.6094516.046025.2880815.00722 1.6703292 1.417296 1.6094516-.046025zm4.2130562-101.3294643c-2.3677039 0-2.0241803 5.7535641-.5131112 6.1226658 2.5198978.6159215 2.8645086-6.1226658.5131112-6.1226658zm12.6133499 124.2625913c-2.2856279 0-2.4399961 7.813855-.8626139 8.299824 2.450867.753996 3.2428194-8.299824.8626139-8.299824zm-18.7561717 5.606374c-.8718542.391212-.8577219.759411.0423969 1.103244.8723978-.391211.8577219-.758508-.0423969-1.103244zm169.9987457 3.350658c-2.319871 0-2.229098 9.553326-.804997 10.198577 1.99048.902449 3.488504-10.198577.804997-10.198577zm-23.509897 8.878655c-2.410644-.481907-3.673311 7.405498-2.549793 8.290349 1.852419 1.458809 5.025663-7.795807 2.549793-8.290349zm-20.48053 7.289668c-1.997546 0-1.50672 3.574601-.354394 4.106595 1.994285.920498 2.583493-4.106595.354394-4.106595zm-70.985566-213.9421144c-1.6714163 0-12.1603009 4.7441748-8.2402182 6.1497392 2.396512.8591315 12.4978455-6.1497392 8.2402182-6.1497392z" fill="#fff" fill-opacity=".3" mask="url(#f)"/></g></g></g></svg>